<svg xmlns="http://www.w3.org/2000/svg" viewBox="0 0 512 512" width="512" height="512">
  <!-- Maskable-safe: full-bleed background (no transparent corners) with the key
       art kept inside the central 80% safe zone. -->
  <defs>
    <linearGradient id="tile512" x1="0" y1="0" x2="0" y2="1">
      <stop offset="0" stop-color="#45c96a"/>
      <stop offset="1" stop-color="#2e8b57"/>
    </linearGradient>
    <linearGradient id="pencil512" x1="0" y1="0" x2="1" y2="0">
      <stop offset="0" stop-color="#ffd35c"/>
      <stop offset="1" stop-color="#f2a728"/>
    </linearGradient>
    <filter id="soft512" x="-30%" y="-30%" width="160%" height="160%">
      <feDropShadow dx="0" dy="1.5" stdDeviation="1.6" flood-color="#0b3d24" flood-opacity="0.35"/>
    </filter>
  </defs>
  <rect width="512" height="512" fill="url(#tile512)"/>
  <rect width="512" height="240" fill="#ffffff" opacity="0.08"/>
  <g transform="translate(51 51) scale(5.125)">
    <g filter="url(#soft512)">
      <rect x="17" y="15" width="35" height="50" rx="5.5" fill="#ffffff"/>
      <path d="M17 20.5 a5.5 5.5 0 0 1 5.5 -5.5 H52 v9 H17 Z" fill="#2e8b57"/>
    </g>
    <g fill="#cdd6d1">
      <rect x="23" y="33" width="23" height="3" rx="1.5"/>
      <rect x="23" y="41" width="23" height="3" rx="1.5"/>
      <rect x="23" y="49" width="15" height="3" rx="1.5"/>
    </g>
    <g transform="rotate(45 54 46)" filter="url(#soft512)">
      <rect x="49.5" y="26" width="9" height="30" rx="2.2" fill="url(#pencil512)"/>
      <rect x="49.5" y="26" width="9" height="6" rx="2.2" fill="#e07b39"/>
      <rect x="49.5" y="30" width="9" height="2" fill="#e07b39"/>
      <polygon points="49.5,56 58.5,56 54,66" fill="#f6f0e2"/>
      <polygon points="52,62 56,62 54,66" fill="#333333"/>
    </g>
  </g>
</svg>
